# xmcd
#
# Track frame offsets:
#	150
#	12974
#	22406
#	32900
#	43483
#	52172
#	62892
#	72378
#	83585
#	95114
#	104187
#	114491
#	127760
#	138954
#	153608
#	163589
#	174653
#	184678
#	195938
#	206703
#
# Disc length: 2913 seconds
#
# Revision: 1
# Processed by: cddbd v1.5.2PL0 Copyright (c) Steve Scherf et al.
# Submitted via: audiograbber 1.83.01
#
DISCID=2b0b5f14
DTITLE=Horton, Johnny - The Essential Recordings - CD2
DYEAR=2012
DGENRE=Country
TTITLE0=North To Alaska
TTITLE1=I'm Coming Home
TTITLE2=Honky Tonk Hardwood Floor
TTITLE3=The First Train Heading South
TTITLE4=All Grown Up
TTITLE5=The Mansion You Stole
TTITLE6=The Golden Rocket
TTITLE7=I'm Ready If You're Willing
TTITLE8=Don't Use My Heart For A Stepping Stone
TTITLE9=Sal's Got A Sugar Lip
TTITLE10=In My House In Shelby County
TTITLE11=Whispering Pines
TTITLE12=All For The Love Of A Girl
TTITLE13=Sink The Bismarck
TTITLE14=Wise To The Ways Of A Woman
TTITLE15=On The Banks Of The Beautiful Nile
TTITLE16=Got The Bull By The Horns
TTITLE17=Devil Made A Masterpiece
TTITLE18=I'll Do It Every Time
TTITLE19=When It's Springtime In Alaska (It's Forty Below)
EXTD=The Prim Collection 2CD Set
EXTT0=
EXTT1=
EXTT2=
EXTT3=
EXTT4=
EXTT5=
EXTT6=
EXTT7=
EXTT8=
EXTT9=
EXTT10=
EXTT11=
EXTT12=
EXTT13=
EXTT14=
EXTT15=
EXTT16=
EXTT17=
EXTT18=
EXTT19=
PLAYORDER=
